<svg width="21" height="21" viewBox="0 0 21 21" fill="none" xmlns="http://www.w3.org/2000/svg">
<mask id="path-1-inside-1_1_2560" fill="white">
<path d="M14.9602 10.6959C14.9602 13.2349 12.9019 15.2932 10.3629 15.2932C7.82393 15.2932 5.76566 13.2349 5.76566 10.6959C5.76566 8.1569 7.82393 6.09863 10.3629 6.09863C12.9019 6.09863 14.9602 8.1569 14.9602 10.6959Z"/>
<path d="M7.73592 14.4488C7.2199 14.1166 13.4108 14.1673 12.9899 14.4488C12.569 14.7302 12.5358 15.387 12.5358 15.387V16.1596H8.19008C8.19008 16.1596 8.19008 15.6215 8.19008 15.387C8.19008 15.1524 8.25194 14.7809 7.73592 14.4488Z"/>
</mask>
<path d="M14.9602 10.6959C14.9602 13.2349 12.9019 15.2932 10.3629 15.2932C7.82393 15.2932 5.76566 13.2349 5.76566 10.6959C5.76566 8.1569 7.82393 6.09863 10.3629 6.09863C12.9019 6.09863 14.9602 8.1569 14.9602 10.6959Z" fill="#C78F00"/>
<path d="M7.73592 14.4488C7.2199 14.1166 13.4108 14.1673 12.9899 14.4488C12.569 14.7302 12.5358 15.387 12.5358 15.387V16.1596H8.19008C8.19008 16.1596 8.19008 15.6215 8.19008 15.387C8.19008 15.1524 8.25194 14.7809 7.73592 14.4488Z" fill="#C78F00"/>
<path d="M12.5358 16.1596V17.0493H13.4255V16.1596H12.5358ZM8.19008 16.1596H7.30034V17.0493H8.19008V16.1596ZM12.5358 15.387L11.6472 15.342L11.646 15.3645V15.387H12.5358ZM14.0705 10.6959C14.0705 12.7435 12.4105 14.4034 10.3629 14.4034V16.1829C13.3933 16.1829 15.8499 13.7263 15.8499 10.6959H14.0705ZM10.3629 14.4034C8.31533 14.4034 6.65541 12.7435 6.65541 10.6959H4.87591C4.87591 13.7263 7.33254 16.1829 10.3629 16.1829V14.4034ZM6.65541 10.6959C6.65541 8.6483 8.31533 6.98838 10.3629 6.98838V5.20888C7.33254 5.20888 4.87591 7.66551 4.87591 10.6959H6.65541ZM10.3629 6.98838C12.4105 6.98838 14.0705 8.6483 14.0705 10.6959H15.8499C15.8499 7.66551 13.3933 5.20888 10.3629 5.20888V6.98838ZM8.21749 13.7006C8.2485 13.7206 8.44717 13.8457 8.54495 14.1202C8.6831 14.508 8.51569 14.8392 8.35994 15.0034C8.24102 15.1287 8.11952 15.178 8.10056 15.1859C8.06373 15.2014 8.04167 15.2063 8.04715 15.2049C8.08544 15.1953 8.21606 15.175 8.46484 15.1563C8.93228 15.1213 9.61807 15.1053 10.3233 15.1084C11.0274 15.1115 11.7225 15.1336 12.2063 15.1705C12.4589 15.1898 12.6119 15.2102 12.6758 15.224C12.6886 15.2268 12.6809 15.2258 12.6604 15.2188C12.6525 15.2162 12.5726 15.1906 12.4782 15.1233C12.412 15.0761 12.0869 14.8252 12.1233 14.3544C12.156 13.9325 12.4586 13.7337 12.4953 13.7092L13.4845 15.1884C13.5476 15.1462 13.8636 14.9303 13.8975 14.4918C13.9353 14.0042 13.5994 13.7372 13.5111 13.6742C13.3946 13.5912 13.2813 13.5503 13.2295 13.5328C13.1651 13.5111 13.1031 13.4958 13.0519 13.4847C12.8598 13.4432 12.6022 13.416 12.3417 13.3962C11.7992 13.3548 11.0577 13.3321 10.3312 13.3289C9.60583 13.3257 8.86695 13.3417 8.33187 13.3818C8.07939 13.4007 7.81429 13.4287 7.61443 13.4788C7.56037 13.4924 7.48862 13.5129 7.41276 13.5447C7.35477 13.569 7.2049 13.6354 7.06908 13.7785C6.89644 13.9605 6.72361 14.3102 6.86862 14.7173C6.97326 15.0111 7.19109 15.1562 7.25435 15.1969L8.21749 13.7006ZM12.5358 15.2698H8.19008V17.0493H12.5358V15.2698ZM8.19008 16.1596C9.07983 16.1596 9.07983 16.1596 9.07983 16.1596C9.07983 16.1596 9.07983 16.1596 9.07983 16.1595C9.07983 16.1595 9.07983 16.1595 9.07983 16.1595C9.07983 16.1595 9.07983 16.1595 9.07983 16.1595C9.07983 16.1595 9.07983 16.1594 9.07983 16.1594C9.07983 16.1594 9.07983 16.1594 9.07983 16.1593C9.07983 16.1593 9.07983 16.1593 9.07983 16.1593C9.07983 16.1592 9.07983 16.1592 9.07983 16.1592C9.07983 16.1591 9.07983 16.1591 9.07983 16.1591C9.07983 16.159 9.07983 16.159 9.07983 16.159C9.07983 16.1589 9.07983 16.1589 9.07983 16.1588C9.07983 16.1588 9.07983 16.1587 9.07983 16.1587C9.07983 16.1586 9.07983 16.1586 9.07983 16.1585C9.07983 16.1585 9.07983 16.1584 9.07983 16.1584C9.07983 16.1583 9.07983 16.1583 9.07983 16.1582C9.07983 16.1581 9.07983 16.1581 9.07983 16.158C9.07983 16.158 9.07983 16.1579 9.07983 16.1578C9.07983 16.1578 9.07983 16.1577 9.07983 16.1576C9.07983 16.1575 9.07983 16.1575 9.07983 16.1574C9.07983 16.1573 9.07983 16.1572 9.07983 16.1572C9.07983 16.1571 9.07983 16.157 9.07983 16.1569C9.07983 16.1568 9.07983 16.1567 9.07983 16.1567C9.07983 16.1566 9.07983 16.1565 9.07983 16.1564C9.07983 16.1563 9.07983 16.1562 9.07983 16.1561C9.07983 16.156 9.07983 16.1559 9.07983 16.1558C9.07983 16.1557 9.07983 16.1556 9.07983 16.1555C9.07983 16.1554 9.07983 16.1553 9.07983 16.1552C9.07983 16.1551 9.07983 16.155 9.07983 16.1549C9.07983 16.1548 9.07983 16.1547 9.07983 16.1545C9.07983 16.1544 9.07983 16.1543 9.07983 16.1542C9.07983 16.1541 9.07983 16.154 9.07983 16.1538C9.07983 16.1537 9.07983 16.1536 9.07983 16.1535C9.07983 16.1533 9.07983 16.1532 9.07983 16.1531C9.07983 16.153 9.07983 16.1528 9.07983 16.1527C9.07983 16.1526 9.07983 16.1524 9.07983 16.1523C9.07983 16.1522 9.07983 16.152 9.07983 16.1519C9.07983 16.1517 9.07983 16.1516 9.07983 16.1515C9.07983 16.1513 9.07983 16.1512 9.07983 16.151C9.07983 16.1509 9.07983 16.1507 9.07983 16.1506C9.07983 16.1504 9.07983 16.1503 9.07983 16.1501C9.07983 16.15 9.07983 16.1498 9.07983 16.1497C9.07983 16.1495 9.07983 16.1493 9.07983 16.1492C9.07983 16.149 9.07983 16.1488 9.07983 16.1487C9.07983 16.1485 9.07983 16.1484 9.07983 16.1482C9.07983 16.148 9.07983 16.1478 9.07983 16.1477C9.07983 16.1475 9.07983 16.1473 9.07983 16.1472C9.07983 16.147 9.07983 16.1468 9.07983 16.1466C9.07983 16.1464 9.07983 16.1463 9.07983 16.1461C9.07983 16.1459 9.07983 16.1457 9.07983 16.1455C9.07983 16.1453 9.07983 16.1451 9.07983 16.145C9.07983 16.1448 9.07983 16.1446 9.07983 16.1444C9.07983 16.1442 9.07983 16.144 9.07983 16.1438C9.07983 16.1436 9.07983 16.1434 9.07983 16.1432C9.07983 16.143 9.07983 16.1428 9.07983 16.1426C9.07983 16.1424 9.07983 16.1422 9.07983 16.142C9.07983 16.1418 9.07983 16.1416 9.07983 16.1414C9.07983 16.1412 9.07983 16.1409 9.07983 16.1407C9.07983 16.1405 9.07983 16.1403 9.07983 16.1401C9.07983 16.1399 9.07983 16.1396 9.07983 16.1394C9.07983 16.1392 9.07983 16.139 9.07983 16.1388C9.07983 16.1385 9.07983 16.1383 9.07983 16.1381C9.07983 16.1379 9.07983 16.1376 9.07983 16.1374C9.07983 16.1372 9.07983 16.1369 9.07983 16.1367C9.07983 16.1365 9.07983 16.1362 9.07983 16.136C9.07983 16.1358 9.07983 16.1355 9.07983 16.1353C9.07983 16.135 9.07983 16.1348 9.07983 16.1346C9.07983 16.1343 9.07983 16.1341 9.07983 16.1338C9.07983 16.1336 9.07983 16.1333 9.07983 16.1331C9.07983 16.1328 9.07983 16.1326 9.07983 16.1323C9.07983 16.1321 9.07983 16.1318 9.07983 16.1315C9.07983 16.1313 9.07983 16.131 9.07983 16.1308C9.07983 16.1305 9.07983 16.1303 9.07983 16.13C9.07983 16.1297 9.07983 16.1295 9.07983 16.1292C9.07983 16.1289 9.07983 16.1287 9.07983 16.1284C9.07983 16.1281 9.07983 16.1279 9.07983 16.1276C9.07983 16.1273 9.07983 16.127 9.07983 16.1268C9.07983 16.1265 9.07983 16.1262 9.07983 16.1259C9.07983 16.1256 9.07983 16.1254 9.07983 16.1251C9.07983 16.1248 9.07983 16.1245 9.07983 16.1242C9.07983 16.1239 9.07983 16.1237 9.07983 16.1234C9.07983 16.1231 9.07983 16.1228 9.07983 16.1225C9.07983 16.1222 9.07983 16.1219 9.07983 16.1216C9.07983 16.1213 9.07983 16.121 9.07983 16.1207C9.07983 16.1204 9.07983 16.1201 9.07983 16.1198C9.07983 16.1195 9.07983 16.1192 9.07983 16.1189C9.07983 16.1186 9.07983 16.1183 9.07983 16.118C9.07983 16.1177 9.07983 16.1174 9.07983 16.1171C9.07983 16.1168 9.07983 16.1165 9.07983 16.1162C9.07983 16.1158 9.07983 16.1155 9.07983 16.1152C9.07983 16.1149 9.07983 16.1146 9.07983 16.1143C9.07983 16.1139 9.07983 16.1136 9.07983 16.1133C9.07983 16.113 9.07983 16.1127 9.07983 16.1123C9.07983 16.112 9.07983 16.1117 9.07983 16.1114C9.07983 16.111 9.07983 16.1107 9.07983 16.1104C9.07983 16.11 9.07983 16.1097 9.07983 16.1094C9.07983 16.109 9.07983 16.1087 9.07983 16.1084C9.07983 16.108 9.07983 16.1077 9.07983 16.1074C9.07983 16.107 9.07983 16.1067 9.07983 16.1063C9.07983 16.106 9.07983 16.1057 9.07983 16.1053C9.07983 16.105 9.07983 16.1046 9.07983 16.1043C9.07983 16.1039 9.07983 16.1036 9.07983 16.1032C9.07983 16.1029 9.07983 16.1025 9.07983 16.1022C9.07983 16.1018 9.07983 16.1015 9.07983 16.1011C9.07983 16.1007 9.07983 16.1004 9.07983 16.1C9.07983 16.0997 9.07983 16.0993 9.07983 16.0989C9.07983 16.0986 9.07983 16.0982 9.07983 16.0979C9.07983 16.0975 9.07983 16.0971 9.07983 16.0968C9.07983 16.0964 9.07983 16.096 9.07983 16.0956C9.07983 16.0953 9.07983 16.0949 9.07983 16.0945C9.07983 16.0942 9.07983 16.0938 9.07983 16.0934C9.07983 16.093 9.07983 16.0927 9.07983 16.0923C9.07983 16.0919 9.07983 16.0915 9.07983 16.0911C9.07983 16.0908 9.07983 16.0904 9.07983 16.09C9.07983 16.0896 9.07983 16.0892 9.07983 16.0888C9.07983 16.0885 9.07983 16.0881 9.07983 16.0877C9.07983 16.0873 9.07983 16.0869 9.07983 16.0865C9.07983 16.0861 9.07983 16.0857 9.07983 16.0853C9.07983 16.0849 9.07983 16.0845 9.07983 16.0841C9.07983 16.0837 9.07983 16.0833 9.07983 16.0829C9.07983 16.0825 9.07983 16.0821 9.07983 16.0817C9.07983 16.0813 9.07983 16.0809 9.07983 16.0805C9.07983 16.0801 9.07983 16.0797 9.07983 16.0793C9.07983 16.0789 9.07983 16.0785 9.07983 16.0781C9.07983 16.0777 9.07983 16.0773 9.07983 16.0768C9.07983 16.0764 9.07983 16.076 9.07983 16.0756C9.07983 16.0752 9.07983 16.0748 9.07983 16.0744C9.07983 16.0739 9.07983 16.0735 9.07983 16.0731C9.07983 16.0727 9.07983 16.0723 9.07983 16.0718C9.07983 16.0714 9.07983 16.071 9.07983 16.0706C9.07983 16.0701 9.07983 16.0697 9.07983 16.0693C9.07983 16.0689 9.07983 16.0684 9.07983 16.068C9.07983 16.0676 9.07983 16.0671 9.07983 16.0667C9.07983 16.0663 9.07983 16.0658 9.07983 16.0654C9.07983 16.065 9.07983 16.0645 9.07983 16.0641C9.07983 16.0637 9.07983 16.0632 9.07983 16.0628C9.07983 16.0623 9.07983 16.0619 9.07983 16.0615C9.07983 16.061 9.07983 16.0606 9.07983 16.0601C9.07983 16.0597 9.07983 16.0592 9.07983 16.0588C9.07983 16.0583 9.07983 16.0579 9.07983 16.0574C9.07983 16.057 9.07983 16.0565 9.07983 16.0561C9.07983 16.0556 9.07983 16.0552 9.07983 16.0547C9.07983 16.0543 9.07983 16.0538 9.07983 16.0534C9.07983 16.0529 9.07983 16.0525 9.07983 16.052C9.07983 16.0515 9.07983 16.0511 9.07983 16.0506C9.07983 16.0502 9.07983 16.0497 9.07983 16.0492C9.07983 16.0488 9.07983 16.0483 9.07983 16.0478C9.07983 16.0474 9.07983 16.0469 9.07983 16.0464C9.07983 16.046 9.07983 16.0455 9.07983 16.045C9.07983 16.0446 9.07983 16.0441 9.07983 16.0436C9.07983 16.0431 9.07983 16.0427 9.07983 16.0422C9.07983 16.0417 9.07983 16.0412 9.07983 16.0408C9.07983 16.0403 9.07983 16.0398 9.07983 16.0393C9.07983 16.0389 9.07983 16.0384 9.07983 16.0379C9.07983 16.0374 9.07983 16.0369 9.07983 16.0364C9.07983 16.036 9.07983 16.0355 9.07983 16.035C9.07983 16.0345 9.07983 16.034 9.07983 16.0335C9.07983 16.033 9.07983 16.0326 9.07983 16.0321C9.07983 16.0316 9.07983 16.0311 9.07983 16.0306C9.07983 16.0301 9.07983 16.0296 9.07983 16.0291C9.07983 16.0286 9.07983 16.0281 9.07983 16.0276C9.07983 16.0271 9.07983 16.0266 9.07983 16.0261C9.07983 16.0256 9.07983 16.0251 9.07983 16.0246C9.07983 16.0241 9.07983 16.0236 9.07983 16.0231C9.07983 16.0226 9.07983 16.0221 9.07983 16.0216C9.07983 16.0211 9.07983 16.0206 9.07983 16.0201C9.07983 16.0196 9.07983 16.0191 9.07983 16.0186C9.07983 16.0181 9.07983 16.0176 9.07983 16.0171C9.07983 16.0165 9.07983 16.016 9.07983 16.0155C9.07983 16.015 9.07983 16.0145 9.07983 16.014C9.07983 16.0135 9.07983 16.0129 9.07983 16.0124C9.07983 16.0119 9.07983 16.0114 9.07983 16.0109C9.07983 16.0104 9.07983 16.0098 9.07983 16.0093C9.07983 16.0088 9.07983 16.0083 9.07983 16.0078C9.07983 16.0072 9.07983 16.0067 9.07983 16.0062C9.07983 16.0057 9.07983 16.0051 9.07983 16.0046C9.07983 16.0041 9.07983 16.0036 9.07983 16.003C9.07983 16.0025 9.07983 16.002 9.07983 16.0014C9.07983 16.0009 9.07983 16.0004 9.07983 15.9998C9.07983 15.9993 9.07983 15.9988 9.07983 15.9982C9.07983 15.9977 9.07983 15.9972 9.07983 15.9966C9.07983 15.9961 9.07983 15.9956 9.07983 15.995C9.07983 15.9945 9.07983 15.994 9.07983 15.9934C9.07983 15.9929 9.07983 15.9923 9.07983 15.9918C9.07983 15.9913 9.07983 15.9907 9.07983 15.9902C9.07983 15.9896 9.07983 15.9891 9.07983 15.9885C9.07983 15.988 9.07983 15.9874 9.07983 15.9869C9.07983 15.9864 9.07983 15.9858 9.07983 15.9853C9.07983 15.9847 9.07983 15.9842 9.07983 15.9836C9.07983 15.9831 9.07983 15.9825 9.07983 15.982C9.07983 15.9814 9.07983 15.9809 9.07983 15.9803C9.07983 15.9797 9.07983 15.9792 9.07983 15.9786C9.07983 15.9781 9.07983 15.9775 9.07983 15.977C9.07983 15.9764 9.07983 15.9759 9.07983 15.9753C9.07983 15.9747 9.07983 15.9742 9.07983 15.9736C9.07983 15.9731 9.07983 15.9725 9.07983 15.9719C9.07983 15.9714 9.07983 15.9708 9.07983 15.9702C9.07983 15.9697 9.07983 15.9691 9.07983 15.9685C9.07983 15.968 9.07983 15.9674 9.07983 15.9669C9.07983 15.9663 9.07983 15.9657 9.07983 15.9651C9.07983 15.9646 9.07983 15.964 9.07983 15.9634C9.07983 15.9629 9.07983 15.9623 9.07983 15.9617C9.07983 15.9612 9.07983 15.9606 9.07983 15.96C9.07983 15.9594 9.07983 15.9589 9.07983 15.9583C9.07983 15.9577 9.07983 15.9571 9.07983 15.9566C9.07983 15.956 9.07983 15.9554 9.07983 15.9548C9.07983 15.9542 9.07983 15.9537 9.07983 15.9531C9.07983 15.9525 9.07983 15.9519 9.07983 15.9513C9.07983 15.9508 9.07983 15.9502 9.07983 15.9496C9.07983 15.949 9.07983 15.9484 9.07983 15.9479C9.07983 15.9473 9.07983 15.9467 9.07983 15.9461C9.07983 15.9455 9.07983 15.9449 9.07983 15.9443C9.07983 15.9438 9.07983 15.9432 9.07983 15.9426C9.07983 15.942 9.07983 15.9414 9.07983 15.9408C9.07983 15.9402 9.07983 15.9396 9.07983 15.939C9.07983 15.9384 9.07983 15.9379 9.07983 15.9373C9.07983 15.9367 9.07983 15.9361 9.07983 15.9355C9.07983 15.9349 9.07983 15.9343 9.07983 15.9337C9.07983 15.9331 9.07983 15.9325 9.07983 15.9319C9.07983 15.9313 9.07983 15.9307 9.07983 15.9301C9.07983 15.9295 9.07983 15.9289 9.07983 15.9283C9.07983 15.9277 9.07983 15.9271 9.07983 15.9265C9.07983 15.9259 9.07983 15.9253 9.07983 15.9247C9.07983 15.9241 9.07983 15.9235 9.07983 15.9229C9.07983 15.9223 9.07983 15.9217 9.07983 15.9211C9.07983 15.9205 9.07983 15.9199 9.07983 15.9193C9.07983 15.9187 9.07983 15.9181 9.07983 15.9175C9.07983 15.9168 9.07983 15.9162 9.07983 15.9156C9.07983 15.915 9.07983 15.9144 9.07983 15.9138C9.07983 15.9132 9.07983 15.9126 9.07983 15.912C9.07983 15.9114 9.07983 15.9107 9.07983 15.9101C9.07983 15.9095 9.07983 15.9089 9.07983 15.9083C9.07983 15.9077 9.07983 15.9071 9.07983 15.9065C9.07983 15.9058 9.07983 15.9052 9.07983 15.9046C9.07983 15.904 9.07983 15.9034 9.07983 15.9028C9.07983 15.9021 9.07983 15.9015 9.07983 15.9009C9.07983 15.9003 9.07983 15.8997 9.07983 15.899C9.07983 15.8984 9.07983 15.8978 9.07983 15.8972C9.07983 15.8966 9.07983 15.8959 9.07983 15.8953C9.07983 15.8947 9.07983 15.8941 9.07983 15.8935C9.07983 15.8928 9.07983 15.8922 9.07983 15.8916C9.07983 15.891 9.07983 15.8903 9.07983 15.8897C9.07983 15.8891 9.07983 15.8885 9.07983 15.8878C9.07983 15.8872 9.07983 15.8866 9.07983 15.886C9.07983 15.8853 9.07983 15.8847 9.07983 15.8841C9.07983 15.8834 9.07983 15.8828 9.07983 15.8822C9.07983 15.8816 9.07983 15.8809 9.07983 15.8803C9.07983 15.8797 9.07983 15.879 9.07983 15.8784C9.07983 15.8778 9.07983 15.8771 9.07983 15.8765C9.07983 15.8759 9.07983 15.8752 9.07983 15.8746C9.07983 15.874 9.07983 15.8733 9.07983 15.8727C9.07983 15.8721 9.07983 15.8714 9.07983 15.8708C9.07983 15.8702 9.07983 15.8695 9.07983 15.8689C9.07983 15.8683 9.07983 15.8676 9.07983 15.867C9.07983 15.8663 9.07983 15.8657 9.07983 15.8651C9.07983 15.8644 9.07983 15.8638 9.07983 15.8632C9.07983 15.8625 9.07983 15.8619 9.07983 15.8612C9.07983 15.8606 9.07983 15.86 9.07983 15.8593C9.07983 15.8587 9.07983 15.858 9.07983 15.8574C9.07983 15.8568 9.07983 15.8561 9.07983 15.8555C9.07983 15.8548 9.07983 15.8542 9.07983 15.8535C9.07983 15.8529 9.07983 15.8523 9.07983 15.8516C9.07983 15.851 9.07983 15.8503 9.07983 15.8497C9.07983 15.849 9.07983 15.8484 9.07983 15.8477C9.07983 15.8471 9.07983 15.8464 9.07983 15.8458C9.07983 15.8452 9.07983 15.8445 9.07983 15.8439C9.07983 15.8432 9.07983 15.8426 9.07983 15.8419C9.07983 15.8413 9.07983 15.8406 9.07983 15.84C9.07983 15.8393 9.07983 15.8387 9.07983 15.838C9.07983 15.8374 9.07983 15.8367 9.07983 15.8361C9.07983 15.8354 9.07983 15.8348 9.07983 15.8341C9.07983 15.8335 9.07983 15.8328 9.07983 15.8322C9.07983 15.8315 9.07983 15.8309 9.07983 15.8302C9.07983 15.8296 9.07983 15.8289 9.07983 15.8282C9.07983 15.8276 9.07983 15.8269 9.07983 15.8263C9.07983 15.8256 9.07983 15.825 9.07983 15.8243C9.07983 15.8237 9.07983 15.823 9.07983 15.8224C9.07983 15.8217 9.07983 15.821 9.07983 15.8204C9.07983 15.8197 9.07983 15.8191 9.07983 15.8184C9.07983 15.8178 9.07983 15.8171 9.07983 15.8164C9.07983 15.8158 9.07983 15.8151 9.07983 15.8145C9.07983 15.8138 9.07983 15.8132 9.07983 15.8125C9.07983 15.8118 9.07983 15.8112 9.07983 15.8105C9.07983 15.8099 9.07983 15.8092 9.07983 15.8085C9.07983 15.8079 9.07983 15.8072 9.07983 15.8066C9.07983 15.8059 9.07983 15.8052 9.07983 15.8046C9.07983 15.8039 9.07983 15.8033 9.07983 15.8026C9.07983 15.8019 9.07983 15.8013 9.07983 15.8006C9.07983 15.8 9.07983 15.7993 9.07983 15.7986C9.07983 15.798 9.07983 15.7973 9.07983 15.7966C9.07983 15.796 9.07983 15.7953 9.07983 15.7947C9.07983 15.794 9.07983 15.7933 9.07983 15.7927C9.07983 15.792 9.07983 15.7913 9.07983 15.7907C9.07983 15.79 9.07983 15.7893 9.07983 15.7887C9.07983 15.788 9.07983 15.7874 9.07983 15.7867C9.07983 15.786 9.07983 15.7854 9.07983 15.7847C9.07983 15.784 9.07983 15.7834 9.07983 15.7827C9.07983 15.782 9.07983 15.7814 9.07983 15.7807C9.07983 15.78 9.07983 15.7794 9.07983 15.7787C9.07983 15.778 9.07983 15.7774 9.07983 15.7767C9.07983 15.776 9.07983 15.7754 9.07983 15.7747C9.07983 15.774 9.07983 15.7734 9.07983 15.7727C9.07983 15.772 9.07983 15.7714 9.07983 15.7707C9.07983 15.77 9.07983 15.7694 9.07983 15.7687C9.07983 15.768 9.07983 15.7674 9.07983 15.7667C9.07983 15.766 9.07983 15.7654 9.07983 15.7647C9.07983 15.764 9.07983 15.7633 9.07983 15.7627C9.07983 15.762 9.07983 15.7613 9.07983 15.7607C9.07983 15.76 9.07983 15.7593 9.07983 15.7587C9.07983 15.758 9.07983 15.7573 9.07983 15.7567C9.07983 15.756 9.07983 15.7553 9.07983 15.7546C9.07983 15.754 9.07983 15.7533 9.07983 15.7526C9.07983 15.752 9.07983 15.7513 9.07983 15.7506C9.07983 15.75 9.07983 15.7493 9.07983 15.7486C9.07983 15.7479 9.07983 15.7473 9.07983 15.7466C9.07983 15.7459 9.07983 15.7453 9.07983 15.7446C9.07983 15.7439 9.07983 15.7432 9.07983 15.7426C9.07983 15.7419 9.07983 15.7412 9.07983 15.7406C9.07983 15.7399 9.07983 15.7392 9.07983 15.7385C9.07983 15.7379 9.07983 15.7372 9.07983 15.7365C9.07983 15.7359 9.07983 15.7352 9.07983 15.7345C9.07983 15.7338 9.07983 15.7332 9.07983 15.7325C9.07983 15.7318 9.07983 15.7312 9.07983 15.7305C9.07983 15.7298 9.07983 15.7291 9.07983 15.7285C9.07983 15.7278 9.07983 15.7271 9.07983 15.7265C9.07983 15.7258 9.07983 15.7251 9.07983 15.7244C9.07983 15.7238 9.07983 15.7231 9.07983 15.7224C9.07983 15.7218 9.07983 15.7211 9.07983 15.7204C9.07983 15.7197 9.07983 15.7191 9.07983 15.7184C9.07983 15.7177 9.07983 15.7171 9.07983 15.7164C9.07983 15.7157 9.07983 15.715 9.07983 15.7144C9.07983 15.7137 9.07983 15.713 9.07983 15.7123C9.07983 15.7117 9.07983 15.711 9.07983 15.7103C9.07983 15.7097 9.07983 15.709 9.07983 15.7083C9.07983 15.7076 9.07983 15.707 9.07983 15.7063C9.07983 15.7056 9.07983 15.705 9.07983 15.7043C9.07983 15.7036 9.07983 15.7029 9.07983 15.7023C9.07983 15.7016 9.07983 15.7009 9.07983 15.7003C9.07983 15.6996 9.07983 15.6989 9.07983 15.6982C9.07983 15.6976 9.07983 15.6969 9.07983 15.6962C9.07983 15.6956 9.07983 15.6949 9.07983 15.6942C9.07983 15.6935 9.07983 15.6929 9.07983 15.6922C9.07983 15.6915 9.07983 15.6909 9.07983 15.6902C9.07983 15.6895 9.07983 15.6889 9.07983 15.6882C9.07983 15.6875 9.07983 15.6868 9.07983 15.6862C9.07983 15.6855 9.07983 15.6848 9.07983 15.6842C9.07983 15.6835 9.07983 15.6828 9.07983 15.6822C9.07983 15.6815 9.07983 15.6808 9.07983 15.6801C9.07983 15.6795 9.07983 15.6788 9.07983 15.6781C9.07983 15.6775 9.07983 15.6768 9.07983 15.6761C9.07983 15.6755 9.07983 15.6748 9.07983 15.6741C9.07983 15.6735 9.07983 15.6728 9.07983 15.6721C9.07983 15.6714 9.07983 15.6708 9.07983 15.6701C9.07983 15.6694 9.07983 15.6688 9.07983 15.6681C9.07983 15.6674 9.07983 15.6668 9.07983 15.6661C9.07983 15.6654 9.07983 15.6648 9.07983 15.6641C9.07983 15.6634 9.07983 15.6628 9.07983 15.6621C9.07983 15.6614 9.07983 15.6608 9.07983 15.6601C9.07983 15.6594 9.07983 15.6588 9.07983 15.6581C9.07983 15.6574 9.07983 15.6568 9.07983 15.6561C9.07983 15.6554 9.07983 15.6548 9.07983 15.6541C9.07983 15.6534 9.07983 15.6528 9.07983 15.6521C9.07983 15.6515 9.07983 15.6508 9.07983 15.6501C9.07983 15.6495 9.07983 15.6488 9.07983 15.6481C9.07983 15.6475 9.07983 15.6468 9.07983 15.6461C9.07983 15.6455 9.07983 15.6448 9.07983 15.6442C9.07983 15.6435 9.07983 15.6428 9.07983 15.6422C9.07983 15.6415 9.07983 15.6408 9.07983 15.6402C9.07983 15.6395 9.07983 15.6389 9.07983 15.6382C9.07983 15.6375 9.07983 15.6369 9.07983 15.6362C9.07983 15.6355 9.07983 15.6349 9.07983 15.6342C9.07983 15.6336 9.07983 15.6329 9.07983 15.6322C9.07983 15.6316 9.07983 15.6309 9.07983 15.6303C9.07983 15.6296 9.07983 15.6289 9.07983 15.6283C9.07983 15.6276 9.07983 15.627 9.07983 15.6263C9.07983 15.6257 9.07983 15.625 9.07983 15.6243C9.07983 15.6237 9.07983 15.623 9.07983 15.6224C9.07983 15.6217 9.07983 15.6211 9.07983 15.6204C9.07983 15.6197 9.07983 15.6191 9.07983 15.6184C9.07983 15.6178 9.07983 15.6171 9.07983 15.6165C9.07983 15.6158 9.07983 15.6152 9.07983 15.6145C9.07983 15.6138 9.07983 15.6132 9.07983 15.6125C9.07983 15.6119 9.07983 15.6112 9.07983 15.6106C9.07983 15.6099 9.07983 15.6093 9.07983 15.6086C9.07983 15.608 9.07983 15.6073 9.07983 15.6067C9.07983 15.606 9.07983 15.6054 9.07983 15.6047C9.07983 15.6041 9.07983 15.6034 9.07983 15.6028C9.07983 15.6021 9.07983 15.6015 9.07983 15.6008C9.07983 15.6002 9.07983 15.5995 9.07983 15.5989C9.07983 15.5982 9.07983 15.5976 9.07983 15.5969C9.07983 15.5963 9.07983 15.5956 9.07983 15.595C9.07983 15.5943 9.07983 15.5937 9.07983 15.593C9.07983 15.5924 9.07983 15.5917 9.07983 15.5911C9.07983 15.5904 9.07983 15.5898 9.07983 15.5892C9.07983 15.5885 9.07983 15.5879 9.07983 15.5872C9.07983 15.5866 9.07983 15.5859 9.07983 15.5853C9.07983 15.5846 9.07983 15.584 9.07983 15.5834C9.07983 15.5827 9.07983 15.5821 9.07983 15.5814C9.07983 15.5808 9.07983 15.5802 9.07983 15.5795C9.07983 15.5789 9.07983 15.5782 9.07983 15.5776C9.07983 15.577 9.07983 15.5763 9.07983 15.5757C9.07983 15.575 9.07983 15.5744 9.07983 15.5738C9.07983 15.5731 9.07983 15.5725 9.07983 15.5718C9.07983 15.5712 9.07983 15.5706 9.07983 15.5699C9.07983 15.5693 9.07983 15.5687 9.07983 15.568C9.07983 15.5674 9.07983 15.5668 9.07983 15.5661C9.07983 15.5655 9.07983 15.5649 9.07983 15.5642C9.07983 15.5636 9.07983 15.563 9.07983 15.5623C9.07983 15.5617 9.07983 15.5611 9.07983 15.5604C9.07983 15.5598 9.07983 15.5592 9.07983 15.5585C9.07983 15.5579 9.07983 15.5573 9.07983 15.5567C9.07983 15.556 9.07983 15.5554 9.07983 15.5548C9.07983 15.5541 9.07983 15.5535 9.07983 15.5529C9.07983 15.5523 9.07983 15.5516 9.07983 15.551C9.07983 15.5504 9.07983 15.5498 9.07983 15.5491C9.07983 15.5485 9.07983 15.5479 9.07983 15.5473C9.07983 15.5466 9.07983 15.546 9.07983 15.5454C9.07983 15.5448 9.07983 15.5441 9.07983 15.5435C9.07983 15.5429 9.07983 15.5423 9.07983 15.5417C9.07983 15.541 9.07983 15.5404 9.07983 15.5398C9.07983 15.5392 9.07983 15.5386 9.07983 15.5379C9.07983 15.5373 9.07983 15.5367 9.07983 15.5361C9.07983 15.5355 9.07983 15.5349 9.07983 15.5342C9.07983 15.5336 9.07983 15.533 9.07983 15.5324C9.07983 15.5318 9.07983 15.5312 9.07983 15.5306C9.07983 15.5299 9.07983 15.5293 9.07983 15.5287C9.07983 15.5281 9.07983 15.5275 9.07983 15.5269C9.07983 15.5263 9.07983 15.5257 9.07983 15.5251C9.07983 15.5244 9.07983 15.5238 9.07983 15.5232C9.07983 15.5226 9.07983 15.522 9.07983 15.5214C9.07983 15.5208 9.07983 15.5202 9.07983 15.5196C9.07983 15.519 9.07983 15.5184 9.07983 15.5178C9.07983 15.5172 9.07983 15.5166 9.07983 15.516C9.07983 15.5154 9.07983 15.5148 9.07983 15.5141C9.07983 15.5135 9.07983 15.5129 9.07983 15.5123C9.07983 15.5117 9.07983 15.5111 9.07983 15.5105C9.07983 15.5099 9.07983 15.5093 9.07983 15.5087C9.07983 15.5082 9.07983 15.5076 9.07983 15.507C9.07983 15.5064 9.07983 15.5058 9.07983 15.5052C9.07983 15.5046 9.07983 15.504 9.07983 15.5034C9.07983 15.5028 9.07983 15.5022 9.07983 15.5016C9.07983 15.501 9.07983 15.5004 9.07983 15.4998C9.07983 15.4992 9.07983 15.4987 9.07983 15.4981C9.07983 15.4975 9.07983 15.4969 9.07983 15.4963C9.07983 15.4957 9.07983 15.4951 9.07983 15.4945C9.07983 15.4939 9.07983 15.4934 9.07983 15.4928C9.07983 15.4922 9.07983 15.4916 9.07983 15.491C9.07983 15.4904 9.07983 15.4899 9.07983 15.4893C9.07983 15.4887 9.07983 15.4881 9.07983 15.4875C9.07983 15.487 9.07983 15.4864 9.07983 15.4858C9.07983 15.4852 9.07983 15.4846 9.07983 15.4841C9.07983 15.4835 9.07983 15.4829 9.07983 15.4823C9.07983 15.4818 9.07983 15.4812 9.07983 15.4806C9.07983 15.48 9.07983 15.4795 9.07983 15.4789C9.07983 15.4783 9.07983 15.4777 9.07983 15.4772C9.07983 15.4766 9.07983 15.476 9.07983 15.4755C9.07983 15.4749 9.07983 15.4743 9.07983 15.4737C9.07983 15.4732 9.07983 15.4726 9.07983 15.472C9.07983 15.4715 9.07983 15.4709 9.07983 15.4703C9.07983 15.4698 9.07983 15.4692 9.07983 15.4687C9.07983 15.4681 9.07983 15.4675 9.07983 15.467C9.07983 15.4664 9.07983 15.4658 9.07983 15.4653C9.07983 15.4647 9.07983 15.4642 9.07983 15.4636C9.07983 15.463 9.07983 15.4625 9.07983 15.4619C9.07983 15.4614 9.07983 15.4608 9.07983 15.4603C9.07983 15.4597 9.07983 15.4592 9.07983 15.4586C9.07983 15.4581 9.07983 15.4575 9.07983 15.457C9.07983 15.4564 9.07983 15.4558 9.07983 15.4553C9.07983 15.4547 9.07983 15.4542 9.07983 15.4537C9.07983 15.4531 9.07983 15.4526 9.07983 15.452C9.07983 15.4515 9.07983 15.4509 9.07983 15.4504C9.07983 15.4498 9.07983 15.4493 9.07983 15.4487C9.07983 15.4482 9.07983 15.4477 9.07983 15.4471C9.07983 15.4466 9.07983 15.446 9.07983 15.4455C9.07983 15.445 9.07983 15.4444 9.07983 15.4439C9.07983 15.4434 9.07983 15.4428 9.07983 15.4423C9.07983 15.4417 9.07983 15.4412 9.07983 15.4407C9.07983 15.4401 9.07983 15.4396 9.07983 15.4391C9.07983 15.4385 9.07983 15.438 9.07983 15.4375C9.07983 15.437 9.07983 15.4364 9.07983 15.4359C9.07983 15.4354 9.07983 15.4348 9.07983 15.4343C9.07983 15.4338 9.07983 15.4333 9.07983 15.4327C9.07983 15.4322 9.07983 15.4317 9.07983 15.4312C9.07983 15.4307 9.07983 15.4301 9.07983 15.4296C9.07983 15.4291 9.07983 15.4286 9.07983 15.4281C9.07983 15.4275 9.07983 15.427 9.07983 15.4265C9.07983 15.426 9.07983 15.4255 9.07983 15.425C9.07983 15.4244 9.07983 15.4239 9.07983 15.4234C9.07983 15.4229 9.07983 15.4224 9.07983 15.4219C9.07983 15.4214 9.07983 15.4209 9.07983 15.4204C9.07983 15.4199 9.07983 15.4193 9.07983 15.4188C9.07983 15.4183 9.07983 15.4178 9.07983 15.4173C9.07983 15.4168 9.07983 15.4163 9.07983 15.4158C9.07983 15.4153 9.07983 15.4148 9.07983 15.4143C9.07983 15.4138 9.07983 15.4133 9.07983 15.4128C9.07983 15.4123 9.07983 15.4118 9.07983 15.4113C9.07983 15.4108 9.07983 15.4103 9.07983 15.4098C9.07983 15.4094 9.07983 15.4089 9.07983 15.4084C9.07983 15.4079 9.07983 15.4074 9.07983 15.4069C9.07983 15.4064 9.07983 15.4059 9.07983 15.4054C9.07983 15.4049 9.07983 15.4045 9.07983 15.404C9.07983 15.4035 9.07983 15.403 9.07983 15.4025C9.07983 15.402 9.07983 15.4016 9.07983 15.4011C9.07983 15.4006 9.07983 15.4001 9.07983 15.3996C9.07983 15.3992 9.07983 15.3987 9.07983 15.3982C9.07983 15.3977 9.07983 15.3973 9.07983 15.3968C9.07983 15.3963 9.07983 15.3958 9.07983 15.3954C9.07983 15.3949 9.07983 15.3944 9.07983 15.394C9.07983 15.3935 9.07983 15.393 9.07983 15.3925C9.07983 15.3921 9.07983 15.3916 9.07983 15.3911C9.07983 15.3907 9.07983 15.3902 9.07983 15.3898C9.07983 15.3893 9.07983 15.3888 9.07983 15.3884C9.07983 15.3879 9.07983 15.3875 9.07983 15.387H7.30034C7.30034 15.3875 7.30034 15.3879 7.30034 15.3884C7.30034 15.3888 7.30034 15.3893 7.30034 15.3898C7.30034 15.3902 7.30034 15.3907 7.30034 15.3911C7.30034 15.3916 7.30034 15.3921 7.30034 15.3925C7.30034 15.393 7.30034 15.3935 7.30034 15.394C7.30034 15.3944 7.30034 15.3949 7.30034 15.3954C7.30034 15.3958 7.30034 15.3963 7.30034 15.3968C7.30034 15.3973 7.30034 15.3977 7.30034 15.3982C7.30034 15.3987 7.30034 15.3992 7.30034 15.3996C7.30034 15.4001 7.30034 15.4006 7.30034 15.4011C7.30034 15.4016 7.30034 15.402 7.30034 15.4025C7.30034 15.403 7.30034 15.4035 7.30034 15.404C7.30034 15.4045 7.30034 15.4049 7.30034 15.4054C7.30034 15.4059 7.30034 15.4064 7.30034 15.4069C7.30034 15.4074 7.30034 15.4079 7.30034 15.4084C7.30034 15.4089 7.30034 15.4094 7.30034 15.4098C7.30034 15.4103 7.30034 15.4108 7.30034 15.4113C7.30034 15.4118 7.30034 15.4123 7.30034 15.4128C7.30034 15.4133 7.30034 15.4138 7.30034 15.4143C7.30034 15.4148 7.30034 15.4153 7.30034 15.4158C7.30034 15.4163 7.30034 15.4168 7.30034 15.4173C7.30034 15.4178 7.30034 15.4183 7.30034 15.4188C7.30034 15.4193 7.30034 15.4199 7.30034 15.4204C7.30034 15.4209 7.30034 15.4214 7.30034 15.4219C7.30034 15.4224 7.30034 15.4229 7.30034 15.4234C7.30034 15.4239 7.30034 15.4244 7.30034 15.425C7.30034 15.4255 7.30034 15.426 7.30034 15.4265C7.30034 15.427 7.30034 15.4275 7.30034 15.4281C7.30034 15.4286 7.30034 15.4291 7.30034 15.4296C7.30034 15.4301 7.30034 15.4307 7.30034 15.4312C7.30034 15.4317 7.30034 15.4322 7.30034 15.4327C7.30034 15.4333 7.30034 15.4338 7.30034 15.4343C7.30034 15.4348 7.30034 15.4354 7.30034 15.4359C7.30034 15.4364 7.30034 15.437 7.30034 15.4375C7.30034 15.438 7.30034 15.4385 7.30034 15.4391C7.30034 15.4396 7.30034 15.4401 7.30034 15.4407C7.30034 15.4412 7.30034 15.4417 7.30034 15.4423C7.30034 15.4428 7.30034 15.4434 7.30034 15.4439C7.30034 15.4444 7.30034 15.445 7.30034 15.4455C7.30034 15.446 7.30034 15.4466 7.30034 15.4471C7.30034 15.4477 7.30034 15.4482 7.30034 15.4487C7.30034 15.4493 7.30034 15.4498 7.30034 15.4504C7.30034 15.4509 7.30034 15.4515 7.30034 15.452C7.30034 15.4526 7.30034 15.4531 7.30034 15.4537C7.30034 15.4542 7.30034 15.4547 7.30034 15.4553C7.30034 15.4558 7.30034 15.4564 7.30034 15.457C7.30034 15.4575 7.30034 15.4581 7.30034 15.4586C7.30034 15.4592 7.30034 15.4597 7.30034 15.4603C7.30034 15.4608 7.30034 15.4614 7.30034 15.4619C7.30034 15.4625 7.30034 15.463 7.30034 15.4636C7.30034 15.4642 7.30034 15.4647 7.30034 15.4653C7.30034 15.4658 7.30034 15.4664 7.30034 15.467C7.30034 15.4675 7.30034 15.4681 7.30034 15.4687C7.30034 15.4692 7.30034 15.4698 7.30034 15.4703C7.30034 15.4709 7.30034 15.4715 7.30034 15.472C7.30034 15.4726 7.30034 15.4732 7.30034 15.4737C7.30034 15.4743 7.30034 15.4749 7.30034 15.4755C7.30034 15.476 7.30034 15.4766 7.30034 15.4772C7.30034 15.4777 7.30034 15.4783 7.30034 15.4789C7.30034 15.4795 7.30034 15.48 7.30034 15.4806C7.30034 15.4812 7.30034 15.4818 7.30034 15.4823C7.30034 15.4829 7.30034 15.4835 7.30034 15.4841C7.30034 15.4846 7.30034 15.4852 7.30034 15.4858C7.30034 15.4864 7.30034 15.487 7.30034 15.4875C7.30034 15.4881 7.30034 15.4887 7.30034 15.4893C7.30034 15.4899 7.30034 15.4904 7.30034 15.491C7.30034 15.4916 7.30034 15.4922 7.30034 15.4928C7.30034 15.4934 7.30034 15.4939 7.30034 15.4945C7.30034 15.4951 7.30034 15.4957 7.30034 15.4963C7.30034 15.4969 7.30034 15.4975 7.30034 15.4981C7.30034 15.4987 7.30034 15.4992 7.30034 15.4998C7.30034 15.5004 7.30034 15.501 7.30034 15.5016C7.30034 15.5022 7.30034 15.5028 7.30034 15.5034C7.30034 15.504 7.30034 15.5046 7.30034 15.5052C7.30034 15.5058 7.30034 15.5064 7.30034 15.507C7.30034 15.5076 7.30034 15.5082 7.30034 15.5087C7.30034 15.5093 7.30034 15.5099 7.30034 15.5105C7.30034 15.5111 7.30034 15.5117 7.30034 15.5123C7.30034 15.5129 7.30034 15.5135 7.30034 15.5141C7.30034 15.5148 7.30034 15.5154 7.30034 15.516C7.30034 15.5166 7.30034 15.5172 7.30034 15.5178C7.30034 15.5184 7.30034 15.519 7.30034 15.5196C7.30034 15.5202 7.30034 15.5208 7.30034 15.5214C7.30034 15.522 7.30034 15.5226 7.30034 15.5232C7.30034 15.5238 7.30034 15.5244 7.30034 15.5251C7.30034 15.5257 7.30034 15.5263 7.30034 15.5269C7.30034 15.5275 7.30034 15.5281 7.30034 15.5287C7.30034 15.5293 7.30034 15.5299 7.30034 15.5306C7.30034 15.5312 7.30034 15.5318 7.30034 15.5324C7.30034 15.533 7.30034 15.5336 7.30034 15.5342C7.30034 15.5349 7.30034 15.5355 7.30034 15.5361C7.30034 15.5367 7.30034 15.5373 7.30034 15.5379C7.30034 15.5386 7.30034 15.5392 7.30034 15.5398C7.30034 15.5404 7.30034 15.541 7.30034 15.5417C7.30034 15.5423 7.30034 15.5429 7.30034 15.5435C7.30034 15.5441 7.30034 15.5448 7.30034 15.5454C7.30034 15.546 7.30034 15.5466 7.30034 15.5473C7.30034 15.5479 7.30034 15.5485 7.30034 15.5491C7.30034 15.5498 7.30034 15.5504 7.30034 15.551C7.30034 15.5516 7.30034 15.5523 7.30034 15.5529C7.30034 15.5535 7.30034 15.5541 7.30034 15.5548C7.30034 15.5554 7.30034 15.556 7.30034 15.5567C7.30034 15.5573 7.30034 15.5579 7.30034 15.5585C7.30034 15.5592 7.30034 15.5598 7.30034 15.5604C7.30034 15.5611 7.30034 15.5617 7.30034 15.5623C7.30034 15.563 7.30034 15.5636 7.30034 15.5642C7.30034 15.5649 7.30034 15.5655 7.30034 15.5661C7.30034 15.5668 7.30034 15.5674 7.30034 15.568C7.30034 15.5687 7.30034 15.5693 7.30034 15.5699C7.30034 15.5706 7.30034 15.5712 7.30034 15.5718C7.30034 15.5725 7.30034 15.5731 7.30034 15.5738C7.30034 15.5744 7.30034 15.575 7.30034 15.5757C7.30034 15.5763 7.30034 15.577 7.30034 15.5776C7.30034 15.5782 7.30034 15.5789 7.30034 15.5795C7.30034 15.5802 7.30034 15.5808 7.30034 15.5814C7.30034 15.5821 7.30034 15.5827 7.30034 15.5834C7.30034 15.584 7.30034 15.5846 7.30034 15.5853C7.30034 15.5859 7.30034 15.5866 7.30034 15.5872C7.30034 15.5879 7.30034 15.5885 7.30034 15.5892C7.30034 15.5898 7.30034 15.5904 7.30034 15.5911C7.30034 15.5917 7.30034 15.5924 7.30034 15.593C7.30034 15.5937 7.30034 15.5943 7.30034 15.595C7.30034 15.5956 7.30034 15.5963 7.30034 15.5969C7.30034 15.5976 7.30034 15.5982 7.30034 15.5989C7.30034 15.5995 7.30034 15.6002 7.30034 15.6008C7.30034 15.6015 7.30034 15.6021 7.30034 15.6028C7.30034 15.6034 7.30034 15.6041 7.30034 15.6047C7.30034 15.6054 7.30034 15.606 7.30034 15.6067C7.30034 15.6073 7.30034 15.608 7.30034 15.6086C7.30034 15.6093 7.30034 15.6099 7.30034 15.6106C7.30034 15.6112 7.30034 15.6119 7.30034 15.6125C7.30034 15.6132 7.30034 15.6138 7.30034 15.6145C7.30034 15.6152 7.30034 15.6158 7.30034 15.6165C7.30034 15.6171 7.30034 15.6178 7.30034 15.6184C7.30034 15.6191 7.30034 15.6197 7.30034 15.6204C7.30034 15.6211 7.30034 15.6217 7.30034 15.6224C7.30034 15.623 7.30034 15.6237 7.30034 15.6243C7.30034 15.625 7.30034 15.6257 7.30034 15.6263C7.30034 15.627 7.30034 15.6276 7.30034 15.6283C7.30034 15.6289 7.30034 15.6296 7.30034 15.6303C7.30034 15.6309 7.30034 15.6316 7.30034 15.6322C7.30034 15.6329 7.30034 15.6336 7.30034 15.6342C7.30034 15.6349 7.30034 15.6355 7.30034 15.6362C7.30034 15.6369 7.30034 15.6375 7.30034 15.6382C7.30034 15.6389 7.30034 15.6395 7.30034 15.6402C7.30034 15.6408 7.30034 15.6415 7.30034 15.6422C7.30034 15.6428 7.30034 15.6435 7.30034 15.6442C7.30034 15.6448 7.30034 15.6455 7.30034 15.6461C7.30034 15.6468 7.30034 15.6475 7.30034 15.6481C7.30034 15.6488 7.30034 15.6495 7.30034 15.6501C7.30034 15.6508 7.30034 15.6515 7.30034 15.6521C7.30034 15.6528 7.30034 15.6534 7.30034 15.6541C7.30034 15.6548 7.30034 15.6554 7.30034 15.6561C7.30034 15.6568 7.30034 15.6574 7.30034 15.6581C7.30034 15.6588 7.30034 15.6594 7.30034 15.6601C7.30034 15.6608 7.30034 15.6614 7.30034 15.6621C7.30034 15.6628 7.30034 15.6634 7.30034 15.6641C7.30034 15.6648 7.30034 15.6654 7.30034 15.6661C7.30034 15.6668 7.30034 15.6674 7.30034 15.6681C7.30034 15.6688 7.30034 15.6694 7.30034 15.6701C7.30034 15.6708 7.30034 15.6714 7.30034 15.6721C7.30034 15.6728 7.30034 15.6735 7.30034 15.6741C7.30034 15.6748 7.30034 15.6755 7.30034 15.6761C7.30034 15.6768 7.30034 15.6775 7.30034 15.6781C7.30034 15.6788 7.30034 15.6795 7.30034 15.6801C7.30034 15.6808 7.30034 15.6815 7.30034 15.6822C7.30034 15.6828 7.30034 15.6835 7.30034 15.6842C7.30034 15.6848 7.30034 15.6855 7.30034 15.6862C7.30034 15.6868 7.30034 15.6875 7.30034 15.6882C7.30034 15.6889 7.30034 15.6895 7.30034 15.6902C7.30034 15.6909 7.30034 15.6915 7.30034 15.6922C7.30034 15.6929 7.30034 15.6935 7.30034 15.6942C7.30034 15.6949 7.30034 15.6956 7.30034 15.6962C7.30034 15.6969 7.30034 15.6976 7.30034 15.6982C7.30034 15.6989 7.30034 15.6996 7.30034 15.7003C7.30034 15.7009 7.30034 15.7016 7.30034 15.7023C7.30034 15.7029 7.30034 15.7036 7.30034 15.7043C7.30034 15.705 7.30034 15.7056 7.30034 15.7063C7.30034 15.707 7.30034 15.7076 7.30034 15.7083C7.30034 15.709 7.30034 15.7097 7.30034 15.7103C7.30034 15.711 7.30034 15.7117 7.30034 15.7123C7.30034 15.713 7.30034 15.7137 7.30034 15.7144C7.30034 15.715 7.30034 15.7157 7.30034 15.7164C7.30034 15.7171 7.30034 15.7177 7.30034 15.7184C7.30034 15.7191 7.30034 15.7197 7.30034 15.7204C7.30034 15.7211 7.30034 15.7218 7.30034 15.7224C7.30034 15.7231 7.30034 15.7238 7.30034 15.7244C7.30034 15.7251 7.30034 15.7258 7.30034 15.7265C7.30034 15.7271 7.30034 15.7278 7.30034 15.7285C7.30034 15.7291 7.30034 15.7298 7.30034 15.7305C7.30034 15.7312 7.30034 15.7318 7.30034 15.7325C7.30034 15.7332 7.30034 15.7338 7.30034 15.7345C7.30034 15.7352 7.30034 15.7359 7.30034 15.7365C7.30034 15.7372 7.30034 15.7379 7.30034 15.7385C7.30034 15.7392 7.30034 15.7399 7.30034 15.7406C7.30034 15.7412 7.30034 15.7419 7.30034 15.7426C7.30034 15.7432 7.30034 15.7439 7.30034 15.7446C7.30034 15.7453 7.30034 15.7459 7.30034 15.7466C7.30034 15.7473 7.30034 15.7479 7.30034 15.7486C7.30034 15.7493 7.30034 15.75 7.30034 15.7506C7.30034 15.7513 7.30034 15.752 7.30034 15.7526C7.30034 15.7533 7.30034 15.754 7.30034 15.7546C7.30034 15.7553 7.30034 15.756 7.30034 15.7567C7.30034 15.7573 7.30034 15.758 7.30034 15.7587C7.30034 15.7593 7.30034 15.76 7.30034 15.7607C7.30034 15.7613 7.30034 15.762 7.30034 15.7627C7.30034 15.7633 7.30034 15.764 7.30034 15.7647C7.30034 15.7654 7.30034 15.766 7.30034 15.7667C7.30034 15.7674 7.30034 15.768 7.30034 15.7687C7.30034 15.7694 7.30034 15.77 7.30034 15.7707C7.30034 15.7714 7.30034 15.772 7.30034 15.7727C7.30034 15.7734 7.30034 15.774 7.30034 15.7747C7.30034 15.7754 7.30034 15.776 7.30034 15.7767C7.30034 15.7774 7.30034 15.778 7.30034 15.7787C7.30034 15.7794 7.30034 15.78 7.30034 15.7807C7.30034 15.7814 7.30034 15.782 7.30034 15.7827C7.30034 15.7834 7.30034 15.784 7.30034 15.7847C7.30034 15.7854 7.30034 15.786 7.30034 15.7867C7.30034 15.7874 7.30034 15.788 7.30034 15.7887C7.30034 15.7893 7.30034 15.79 7.30034 15.7907C7.30034 15.7913 7.30034 15.792 7.30034 15.7927C7.30034 15.7933 7.30034 15.794 7.30034 15.7947C7.30034 15.7953 7.30034 15.796 7.30034 15.7966C7.30034 15.7973 7.30034 15.798 7.30034 15.7986C7.30034 15.7993 7.30034 15.8 7.30034 15.8006C7.30034 15.8013 7.30034 15.8019 7.30034 15.8026C7.30034 15.8033 7.30034 15.8039 7.30034 15.8046C7.30034 15.8052 7.30034 15.8059 7.30034 15.8066C7.30034 15.8072 7.30034 15.8079 7.30034 15.8085C7.30034 15.8092 7.30034 15.8099 7.30034 15.8105C7.30034 15.8112 7.30034 15.8118 7.30034 15.8125C7.30034 15.8132 7.30034 15.8138 7.30034 15.8145C7.30034 15.8151 7.30034 15.8158 7.30034 15.8164C7.30034 15.8171 7.30034 15.8178 7.30034 15.8184C7.30034 15.8191 7.30034 15.8197 7.30034 15.8204C7.30034 15.821 7.30034 15.8217 7.30034 15.8224C7.30034 15.823 7.30034 15.8237 7.30034 15.8243C7.30034 15.825 7.30034 15.8256 7.30034 15.8263C7.30034 15.8269 7.30034 15.8276 7.30034 15.8282C7.30034 15.8289 7.30034 15.8296 7.30034 15.8302C7.30034 15.8309 7.30034 15.8315 7.30034 15.8322C7.30034 15.8328 7.30034 15.8335 7.30034 15.8341C7.30034 15.8348 7.30034 15.8354 7.30034 15.8361C7.30034 15.8367 7.30034 15.8374 7.30034 15.838C7.30034 15.8387 7.30034 15.8393 7.30034 15.84C7.30034 15.8406 7.30034 15.8413 7.30034 15.8419C7.30034 15.8426 7.30034 15.8432 7.30034 15.8439C7.30034 15.8445 7.30034 15.8452 7.30034 15.8458C7.30034 15.8464 7.30034 15.8471 7.30034 15.8477C7.30034 15.8484 7.30034 15.849 7.30034 15.8497C7.30034 15.8503 7.30034 15.851 7.30034 15.8516C7.30034 15.8523 7.30034 15.8529 7.30034 15.8535C7.30034 15.8542 7.30034 15.8548 7.30034 15.8555C7.30034 15.8561 7.30034 15.8568 7.30034 15.8574C7.30034 15.858 7.30034 15.8587 7.30034 15.8593C7.30034 15.86 7.30034 15.8606 7.30034 15.8612C7.30034 15.8619 7.30034 15.8625 7.30034 15.8632C7.30034 15.8638 7.30034 15.8644 7.30034 15.8651C7.30034 15.8657 7.30034 15.8663 7.30034 15.867C7.30034 15.8676 7.30034 15.8683 7.30034 15.8689C7.30034 15.8695 7.30034 15.8702 7.30034 15.8708C7.30034 15.8714 7.30034 15.8721 7.30034 15.8727C7.30034 15.8733 7.30034 15.874 7.30034 15.8746C7.30034 15.8752 7.30034 15.8759 7.30034 15.8765C7.30034 15.8771 7.30034 15.8778 7.30034 15.8784C7.30034 15.879 7.30034 15.8797 7.30034 15.8803C7.30034 15.8809 7.30034 15.8816 7.30034 15.8822C7.30034 15.8828 7.30034 15.8834 7.30034 15.8841C7.30034 15.8847 7.30034 15.8853 7.30034 15.886C7.30034 15.8866 7.30034 15.8872 7.30034 15.8878C7.30034 15.8885 7.30034 15.8891 7.30034 15.8897C7.30034 15.8903 7.30034 15.891 7.30034 15.8916C7.30034 15.8922 7.30034 15.8928 7.30034 15.8935C7.30034 15.8941 7.30034 15.8947 7.30034 15.8953C7.30034 15.8959 7.30034 15.8966 7.30034 15.8972C7.30034 15.8978 7.30034 15.8984 7.30034 15.899C7.30034 15.8997 7.30034 15.9003 7.30034 15.9009C7.30034 15.9015 7.30034 15.9021 7.30034 15.9028C7.30034 15.9034 7.30034 15.904 7.30034 15.9046C7.30034 15.9052 7.30034 15.9058 7.30034 15.9065C7.30034 15.9071 7.30034 15.9077 7.30034 15.9083C7.30034 15.9089 7.30034 15.9095 7.30034 15.9101C7.30034 15.9107 7.30034 15.9114 7.30034 15.912C7.30034 15.9126 7.30034 15.9132 7.30034 15.9138C7.30034 15.9144 7.30034 15.915 7.30034 15.9156C7.30034 15.9162 7.30034 15.9168 7.30034 15.9175C7.30034 15.9181 7.30034 15.9187 7.30034 15.9193C7.30034 15.9199 7.30034 15.9205 7.30034 15.9211C7.30034 15.9217 7.30034 15.9223 7.30034 15.9229C7.30034 15.9235 7.30034 15.9241 7.30034 15.9247C7.30034 15.9253 7.30034 15.9259 7.30034 15.9265C7.30034 15.9271 7.30034 15.9277 7.30034 15.9283C7.30034 15.9289 7.30034 15.9295 7.30034 15.9301C7.30034 15.9307 7.30034 15.9313 7.30034 15.9319C7.30034 15.9325 7.30034 15.9331 7.30034 15.9337C7.30034 15.9343 7.30034 15.9349 7.30034 15.9355C7.30034 15.9361 7.30034 15.9367 7.30034 15.9373C7.30034 15.9379 7.30034 15.9384 7.30034 15.939C7.30034 15.9396 7.30034 15.9402 7.30034 15.9408C7.30034 15.9414 7.30034 15.942 7.30034 15.9426C7.30034 15.9432 7.30034 15.9438 7.30034 15.9443C7.30034 15.9449 7.30034 15.9455 7.30034 15.9461C7.30034 15.9467 7.30034 15.9473 7.30034 15.9479C7.30034 15.9484 7.30034 15.949 7.30034 15.9496C7.30034 15.9502 7.30034 15.9508 7.30034 15.9513C7.30034 15.9519 7.30034 15.9525 7.30034 15.9531C7.30034 15.9537 7.30034 15.9542 7.30034 15.9548C7.30034 15.9554 7.30034 15.956 7.30034 15.9566C7.30034 15.9571 7.30034 15.9577 7.30034 15.9583C7.30034 15.9589 7.30034 15.9594 7.30034 15.96C7.30034 15.9606 7.30034 15.9612 7.30034 15.9617C7.30034 15.9623 7.30034 15.9629 7.30034 15.9634C7.30034 15.964 7.30034 15.9646 7.30034 15.9651C7.30034 15.9657 7.30034 15.9663 7.30034 15.9669C7.30034 15.9674 7.30034 15.968 7.30034 15.9685C7.30034 15.9691 7.30034 15.9697 7.30034 15.9702C7.30034 15.9708 7.30034 15.9714 7.30034 15.9719C7.30034 15.9725 7.30034 15.9731 7.30034 15.9736C7.30034 15.9742 7.30034 15.9747 7.30034 15.9753C7.30034 15.9759 7.30034 15.9764 7.30034 15.977C7.30034 15.9775 7.30034 15.9781 7.30034 15.9786C7.30034 15.9792 7.30034 15.9797 7.30034 15.9803C7.30034 15.9809 7.30034 15.9814 7.30034 15.982C7.30034 15.9825 7.30034 15.9831 7.30034 15.9836C7.30034 15.9842 7.30034 15.9847 7.30034 15.9853C7.30034 15.9858 7.30034 15.9864 7.30034 15.9869C7.30034 15.9874 7.30034 15.988 7.30034 15.9885C7.30034 15.9891 7.30034 15.9896 7.30034 15.9902C7.30034 15.9907 7.30034 15.9913 7.30034 15.9918C7.30034 15.9923 7.30034 15.9929 7.30034 15.9934C7.30034 15.994 7.30034 15.9945 7.30034 15.995C7.30034 15.9956 7.30034 15.9961 7.30034 15.9966C7.30034 15.9972 7.30034 15.9977 7.30034 15.9982C7.30034 15.9988 7.30034 15.9993 7.30034 15.9998C7.30034 16.0004 7.30034 16.0009 7.30034 16.0014C7.30034 16.002 7.30034 16.0025 7.30034 16.003C7.30034 16.0036 7.30034 16.0041 7.30034 16.0046C7.30034 16.0051 7.30034 16.0057 7.30034 16.0062C7.30034 16.0067 7.30034 16.0072 7.30034 16.0078C7.30034 16.0083 7.30034 16.0088 7.30034 16.0093C7.30034 16.0098 7.30034 16.0104 7.30034 16.0109C7.30034 16.0114 7.30034 16.0119 7.30034 16.0124C7.30034 16.0129 7.30034 16.0135 7.30034 16.014C7.30034 16.0145 7.30034 16.015 7.30034 16.0155C7.30034 16.016 7.30034 16.0165 7.30034 16.0171C7.30034 16.0176 7.30034 16.0181 7.30034 16.0186C7.30034 16.0191 7.30034 16.0196 7.30034 16.0201C7.30034 16.0206 7.30034 16.0211 7.30034 16.0216C7.30034 16.0221 7.30034 16.0226 7.30034 16.0231C7.30034 16.0236 7.30034 16.0241 7.30034 16.0246C7.30034 16.0251 7.30034 16.0256 7.30034 16.0261C7.30034 16.0266 7.30034 16.0271 7.30034 16.0276C7.30034 16.0281 7.30034 16.0286 7.30034 16.0291C7.30034 16.0296 7.30034 16.0301 7.30034 16.0306C7.30034 16.0311 7.30034 16.0316 7.30034 16.0321C7.30034 16.0326 7.30034 16.033 7.30034 16.0335C7.30034 16.034 7.30034 16.0345 7.30034 16.035C7.30034 16.0355 7.30034 16.036 7.30034 16.0364C7.30034 16.0369 7.30034 16.0374 7.30034 16.0379C7.30034 16.0384 7.30034 16.0389 7.30034 16.0393C7.30034 16.0398 7.30034 16.0403 7.30034 16.0408C7.30034 16.0412 7.30034 16.0417 7.30034 16.0422C7.30034 16.0427 7.30034 16.0431 7.30034 16.0436C7.30034 16.0441 7.30034 16.0446 7.30034 16.045C7.30034 16.0455 7.30034 16.046 7.30034 16.0464C7.30034 16.0469 7.30034 16.0474 7.30034 16.0478C7.30034 16.0483 7.30034 16.0488 7.30034 16.0492C7.30034 16.0497 7.30034 16.0502 7.30034 16.0506C7.30034 16.0511 7.30034 16.0515 7.30034 16.052C7.30034 16.0525 7.30034 16.0529 7.30034 16.0534C7.30034 16.0538 7.30034 16.0543 7.30034 16.0547C7.30034 16.0552 7.30034 16.0556 7.30034 16.0561C7.30034 16.0565 7.30034 16.057 7.30034 16.0574C7.30034 16.0579 7.30034 16.0583 7.30034 16.0588C7.30034 16.0592 7.30034 16.0597 7.30034 16.0601C7.30034 16.0606 7.30034 16.061 7.30034 16.0615C7.30034 16.0619 7.30034 16.0623 7.30034 16.0628C7.30034 16.0632 7.30034 16.0637 7.30034 16.0641C7.30034 16.0645 7.30034 16.065 7.30034 16.0654C7.30034 16.0658 7.30034 16.0663 7.30034 16.0667C7.30034 16.0671 7.30034 16.0676 7.30034 16.068C7.30034 16.0684 7.30034 16.0689 7.30034 16.0693C7.30034 16.0697 7.30034 16.0701 7.30034 16.0706C7.30034 16.071 7.30034 16.0714 7.30034 16.0718C7.30034 16.0723 7.30034 16.0727 7.30034 16.0731C7.30034 16.0735 7.30034 16.0739 7.30034 16.0744C7.30034 16.0748 7.30034 16.0752 7.30034 16.0756C7.30034 16.076 7.30034 16.0764 7.30034 16.0768C7.30034 16.0773 7.30034 16.0777 7.30034 16.0781C7.30034 16.0785 7.30034 16.0789 7.30034 16.0793C7.30034 16.0797 7.30034 16.0801 7.30034 16.0805C7.30034 16.0809 7.30034 16.0813 7.30034 16.0817C7.30034 16.0821 7.30034 16.0825 7.30034 16.0829C7.30034 16.0833 7.30034 16.0837 7.30034 16.0841C7.30034 16.0845 7.30034 16.0849 7.30034 16.0853C7.30034 16.0857 7.30034 16.0861 7.30034 16.0865C7.30034 16.0869 7.30034 16.0873 7.30034 16.0877C7.30034 16.0881 7.30034 16.0885 7.30034 16.0888C7.30034 16.0892 7.30034 16.0896 7.30034 16.09C7.30034 16.0904 7.30034 16.0908 7.30034 16.0911C7.30034 16.0915 7.30034 16.0919 7.30034 16.0923C7.30034 16.0927 7.30034 16.093 7.30034 16.0934C7.30034 16.0938 7.30034 16.0942 7.30034 16.0945C7.30034 16.0949 7.30034 16.0953 7.30034 16.0956C7.30034 16.096 7.30034 16.0964 7.30034 16.0968C7.30034 16.0971 7.30034 16.0975 7.30034 16.0979C7.30034 16.0982 7.30034 16.0986 7.30034 16.0989C7.30034 16.0993 7.30034 16.0997 7.30034 16.1C7.30034 16.1004 7.30034 16.1007 7.30034 16.1011C7.30034 16.1015 7.30034 16.1018 7.30034 16.1022C7.30034 16.1025 7.30034 16.1029 7.30034 16.1032C7.30034 16.1036 7.30034 16.1039 7.30034 16.1043C7.30034 16.1046 7.30034 16.105 7.30034 16.1053C7.30034 16.1057 7.30034 16.106 7.30034 16.1063C7.30034 16.1067 7.30034 16.107 7.30034 16.1074C7.30034 16.1077 7.30034 16.108 7.30034 16.1084C7.30034 16.1087 7.30034 16.109 7.30034 16.1094C7.30034 16.1097 7.30034 16.11 7.30034 16.1104C7.30034 16.1107 7.30034 16.111 7.30034 16.1114C7.30034 16.1117 7.30034 16.112 7.30034 16.1123C7.30034 16.1127 7.30034 16.113 7.30034 16.1133C7.30034 16.1136 7.30034 16.1139 7.30034 16.1143C7.30034 16.1146 7.30034 16.1149 7.30034 16.1152C7.30034 16.1155 7.30034 16.1158 7.30034 16.1162C7.30034 16.1165 7.30034 16.1168 7.30034 16.1171C7.30034 16.1174 7.30034 16.1177 7.30034 16.118C7.30034 16.1183 7.30034 16.1186 7.30034 16.1189C7.30034 16.1192 7.30034 16.1195 7.30034 16.1198C7.30034 16.1201 7.30034 16.1204 7.30034 16.1207C7.30034 16.121 7.30034 16.1213 7.30034 16.1216C7.30034 16.1219 7.30034 16.1222 7.30034 16.1225C7.30034 16.1228 7.30034 16.1231 7.30034 16.1234C7.30034 16.1237 7.30034 16.1239 7.30034 16.1242C7.30034 16.1245 7.30034 16.1248 7.30034 16.1251C7.30034 16.1254 7.30034 16.1256 7.30034 16.1259C7.30034 16.1262 7.30034 16.1265 7.30034 16.1268C7.30034 16.127 7.30034 16.1273 7.30034 16.1276C7.30034 16.1279 7.30034 16.1281 7.30034 16.1284C7.30034 16.1287 7.30034 16.1289 7.30034 16.1292C7.30034 16.1295 7.30034 16.1297 7.30034 16.13C7.30034 16.1303 7.30034 16.1305 7.30034 16.1308C7.30034 16.131 7.30034 16.1313 7.30034 16.1315C7.30034 16.1318 7.30034 16.1321 7.30034 16.1323C7.30034 16.1326 7.30034 16.1328 7.30034 16.1331C7.30034 16.1333 7.30034 16.1336 7.30034 16.1338C7.30034 16.1341 7.30034 16.1343 7.30034 16.1346C7.30034 16.1348 7.30034 16.135 7.30034 16.1353C7.30034 16.1355 7.30034 16.1358 7.30034 16.136C7.30034 16.1362 7.30034 16.1365 7.30034 16.1367C7.30034 16.1369 7.30034 16.1372 7.30034 16.1374C7.30034 16.1376 7.30034 16.1379 7.30034 16.1381C7.30034 16.1383 7.30034 16.1385 7.30034 16.1388C7.30034 16.139 7.30034 16.1392 7.30034 16.1394C7.30034 16.1396 7.30034 16.1399 7.30034 16.1401C7.30034 16.1403 7.30034 16.1405 7.30034 16.1407C7.30034 16.1409 7.30034 16.1412 7.30034 16.1414C7.30034 16.1416 7.30034 16.1418 7.30034 16.142C7.30034 16.1422 7.30034 16.1424 7.30034 16.1426C7.30034 16.1428 7.30034 16.143 7.30034 16.1432C7.30034 16.1434 7.30034 16.1436 7.30034 16.1438C7.30034 16.144 7.30034 16.1442 7.30034 16.1444C7.30034 16.1446 7.30034 16.1448 7.30034 16.145C7.30034 16.1451 7.30034 16.1453 7.30034 16.1455C7.30034 16.1457 7.30034 16.1459 7.30034 16.1461C7.30034 16.1463 7.30034 16.1464 7.30034 16.1466C7.30034 16.1468 7.30034 16.147 7.30034 16.1472C7.30034 16.1473 7.30034 16.1475 7.30034 16.1477C7.30034 16.1478 7.30034 16.148 7.30034 16.1482C7.30034 16.1484 7.30034 16.1485 7.30034 16.1487C7.30034 16.1488 7.30034 16.149 7.30034 16.1492C7.30034 16.1493 7.30034 16.1495 7.30034 16.1497C7.30034 16.1498 7.30034 16.15 7.30034 16.1501C7.30034 16.1503 7.30034 16.1504 7.30034 16.1506C7.30034 16.1507 7.30034 16.1509 7.30034 16.151C7.30034 16.1512 7.30034 16.1513 7.30034 16.1515C7.30034 16.1516 7.30034 16.1517 7.30034 16.1519C7.30034 16.152 7.30034 16.1522 7.30034 16.1523C7.30034 16.1524 7.30034 16.1526 7.30034 16.1527C7.30034 16.1528 7.30034 16.153 7.30034 16.1531C7.30034 16.1532 7.30034 16.1533 7.30034 16.1535C7.30034 16.1536 7.30034 16.1537 7.30034 16.1538C7.30034 16.154 7.30034 16.1541 7.30034 16.1542C7.30034 16.1543 7.30034 16.1544 7.30034 16.1545C7.30034 16.1547 7.30034 16.1548 7.30034 16.1549C7.30034 16.155 7.30034 16.1551 7.30034 16.1552C7.30034 16.1553 7.30034 16.1554 7.30034 16.1555C7.30034 16.1556 7.30034 16.1557 7.30034 16.1558C7.30034 16.1559 7.30034 16.156 7.30034 16.1561C7.30034 16.1562 7.30034 16.1563 7.30034 16.1564C7.30034 16.1565 7.30034 16.1566 7.30034 16.1567C7.30034 16.1567 7.30034 16.1568 7.30034 16.1569C7.30034 16.157 7.30034 16.1571 7.30034 16.1572C7.30034 16.1572 7.30034 16.1573 7.30034 16.1574C7.30034 16.1575 7.30034 16.1575 7.30034 16.1576C7.30034 16.1577 7.30034 16.1578 7.30034 16.1578C7.30034 16.1579 7.30034 16.158 7.30034 16.158C7.30034 16.1581 7.30034 16.1581 7.30034 16.1582C7.30034 16.1583 7.30034 16.1583 7.30034 16.1584C7.30034 16.1584 7.30034 16.1585 7.30034 16.1585C7.30034 16.1586 7.30034 16.1586 7.30034 16.1587C7.30034 16.1587 7.30034 16.1588 7.30034 16.1588C7.30034 16.1589 7.30034 16.1589 7.30034 16.159C7.30034 16.159 7.30034 16.159 7.30034 16.1591C7.30034 16.1591 7.30034 16.1591 7.30034 16.1592C7.30034 16.1592 7.30034 16.1592 7.30034 16.1593C7.30034 16.1593 7.30034 16.1593 7.30034 16.1593C7.30034 16.1594 7.30034 16.1594 7.30034 16.1594C7.30034 16.1594 7.30034 16.1595 7.30034 16.1595C7.30034 16.1595 7.30034 16.1595 7.30034 16.1595C7.30034 16.1595 7.30034 16.1595 7.30034 16.1595C7.30034 16.1596 7.30034 16.1596 7.30034 16.1596C7.30034 16.1596 7.30034 16.1596 8.19008 16.1596ZM9.07983 15.387C9.07983 15.3738 9.10663 15.0256 9.00885 14.6992C8.89197 14.309 8.63237 13.9677 8.21749 13.7006L7.25435 15.1969C7.31266 15.2345 7.32752 15.2555 7.32424 15.2513C7.3192 15.2449 7.31 15.2292 7.30418 15.2098C7.29948 15.1941 7.30159 15.1907 7.30237 15.2157C7.30278 15.2291 7.30276 15.2461 7.30217 15.2747C7.30176 15.295 7.30034 15.3455 7.30034 15.387H9.07983ZM12.4953 13.7092C12.0346 14.0173 11.8392 14.4852 11.7541 14.7634C11.7076 14.9157 11.6818 15.052 11.6673 15.1506C11.6599 15.2007 11.6552 15.243 11.6521 15.2753C11.6506 15.2915 11.6495 15.3054 11.6487 15.3165C11.6483 15.3221 11.648 15.3271 11.6478 15.3313C11.6476 15.3334 11.6475 15.3354 11.6474 15.3372C11.6474 15.3381 11.6473 15.3389 11.6473 15.3397C11.6473 15.3401 11.6472 15.3405 11.6472 15.3409C11.6472 15.3411 11.6472 15.3413 11.6472 15.3414C11.6472 15.3417 11.6472 15.342 12.5358 15.387C13.4244 15.432 13.4244 15.4323 13.4244 15.4325C13.4244 15.4326 13.4243 15.4329 13.4243 15.433C13.4243 15.4334 13.4243 15.4337 13.4243 15.434C13.4242 15.4347 13.4242 15.4353 13.4242 15.4359C13.4241 15.437 13.4241 15.438 13.424 15.4389C13.4239 15.4406 13.4238 15.4419 13.4238 15.4426C13.4237 15.444 13.4237 15.4434 13.4239 15.4411C13.4243 15.4364 13.4255 15.4253 13.4278 15.4094C13.4327 15.3761 13.4415 15.3305 13.4559 15.2835C13.4928 15.163 13.5244 15.1618 13.4845 15.1884L12.4953 13.7092ZM11.646 15.387V16.1596H13.4255V15.387H11.646Z" fill="#C78F00" mask="url(#path-1-inside-1_1_2560)"/>
<path d="M14.4836 10.7633C14.4836 13.0274 12.6371 14.8629 10.3594 14.8629C8.0817 14.8629 6.23524 13.0274 6.23524 10.7633C6.23524 8.49917 8.0817 6.66373 10.3594 6.66373C12.6371 6.66373 14.4836 8.49917 14.4836 10.7633Z" fill="url(#paint0_linear_1_2560)"/>
<path d="M8.00274 14.1099C7.53983 13.8137 13.0937 13.8589 12.7161 14.1099C12.3385 14.3609 12.2111 14.7792 12.2111 14.9466C12.2111 15.1139 12.2111 17.6238 12.2111 17.6238H8.50774C8.50774 17.6238 8.50774 15.1557 8.50774 14.9466C8.50774 14.7374 8.46566 14.4061 8.00274 14.1099Z" fill="url(#paint1_linear_1_2560)"/>
<path opacity="0.8" d="M9.29403 8.01958C8.6847 8.1078 8.18831 8.48638 7.92194 8.99689" stroke="white" stroke-width="5" stroke-linecap="round"/>
<circle opacity="0.8" cx="7.45445" cy="10.1402" r="0.395468" transform="rotate(-1.93379 7.45445 10.1402)" fill="white"/>
<path d="M12.0599 18.9795C12.0599 19.7908 11.2989 20.4484 10.3602 20.4484C9.42148 20.4484 8.6605 19.7908 8.6605 18.9795C8.6605 18.1683 9.42148 17.5107 10.3602 17.5107C11.2989 17.5107 12.0599 18.1683 12.0599 18.9795Z" fill="#545555"/>
<path d="M8.15688 16.9457H12.5635V17.8496H8.15688V16.9457Z" fill="#545555"/>
<rect x="0.889749" y="-0.889749" width="6.86409" height="2.79642" rx="1.39821" transform="matrix(-1 0 0 1 14.6636 16.1548)" fill="#737B7D" stroke="#545555" stroke-width="1.7795"/>
<rect x="0.889749" y="-0.889749" width="6.6381" height="2.90941" rx="1.4547" transform="matrix(-1 0 0 1 14.5506 17.511)" fill="#737B7D" stroke="#545555" stroke-width="1.7795"/>
<path d="M17.1904 10.8152L19.7637 10.8152" stroke="#FADA26" stroke-width="2" stroke-linecap="round"/>
<path d="M1.23634 10.8152L3.80957 10.8152" stroke="#FADA26" stroke-width="2" stroke-linecap="round"/>
<path d="M16.2941 7.47L18.5225 6.18339" stroke="#FADA26" stroke-width="2" stroke-linecap="round"/>
<path d="M2.47736 15.4471L4.70583 14.1604" stroke="#FADA26" stroke-width="2" stroke-linecap="round"/>
<path d="M13.8445 5.02103L15.1311 2.79255" stroke="#FADA26" stroke-width="2" stroke-linecap="round"/>
<path d="M10.4999 4.12482L10.4999 1.55159" stroke="#FADA26" stroke-width="2" stroke-linecap="round"/>
<path d="M7.15527 5.02103L5.86865 2.79255" stroke="#FADA26" stroke-width="2" stroke-linecap="round"/>
<path d="M16.2941 14.1604L18.5225 15.447" stroke="#FADA26" stroke-width="2" stroke-linecap="round"/>
<path d="M2.47736 6.18332L4.70583 7.46993" stroke="#FADA26" stroke-width="2" stroke-linecap="round"/>
<defs>
<linearGradient id="paint0_linear_1_2560" x1="8.61532" y1="7.29818" x2="10.9705" y2="16.7973" gradientUnits="userSpaceOnUse">
<stop stop-color="#FFEB3C"/>
<stop offset="1" stop-color="#FFAA00"/>
</linearGradient>
<linearGradient id="paint1_linear_1_2560" x1="8.61532" y1="7.29818" x2="10.9705" y2="16.7973" gradientUnits="userSpaceOnUse">
<stop stop-color="#FFEB3C"/>
<stop offset="1" stop-color="#FFAA00"/>
</linearGradient>
</defs>
</svg>
